<svg width="256" height="256" viewBox="0 0 256 256" fill="none" xmlns="http://www.w3.org/2000/svg">
<g clip-path="url(#clip0_11_100)">
<rect width="256" height="256" rx="40" fill="white"/>
<rect width="256" height="256" rx="40" fill="#FFFC00"/>
<path d="M68.1245 142.364L69.6427 135.04C64.6045 130.002 64.2276 124.38 64.4445 121.824C64.6081 119.925 63.7121 106.336 87.6907 83.104C90.1028 80.7966 92.1793 78.1624 93.8596 75.2782C97.2232 69.4293 103.502 57.5075 112.704 36.0604C126.396 4.13864 141.561 79.2604 139.001 100.736C138.667 103.548 135.527 119.637 135.054 122.432L124.814 160.796" fill="#D0CFCE"/>
<path d="M135.076 164.551C237.369 161.252 201.067 29.2622 197.76 45.76C194.46 62.2577 98.7734 157.938 88.8889 144.747C78.9902 131.548 65.792 128.249 59.1929 138.148C52.5938 148.046 49.2943 151.346 49.2943 151.346C49.2943 151.346 69.0916 148.046 72.3911 154.645C75.6907 161.244 86.1547 182.898 105.387 184.341C105.387 184.341 111.954 186.581 125.184 214.037C140.612 246.052 204.366 214.037 184.562 197.54C164.764 181.042 151.566 187.641 141.682 181.042C131.783 174.443 135.083 164.544 135.083 164.544L135.076 164.551Z" fill="white"/>
<path d="M136.142 164.018C236.978 160.764 201.209 30.6489 197.938 46.9334C194.667 63.2178 100.373 157.511 90.5956 144.498C80.8391 131.488 67.2378 128.04 60.7347 137.796C54.2041 146.286 50.2857 150.857 50.2857 150.857C50.2857 150.857 70.5426 148.269 73.7959 154.776C77.0492 161.282 87.75 182.84 106.449 183.51C106.449 183.51 112.999 186.486 126.041 213.551C141.248 245.11 204.459 212.8 184.939 196.537C165.422 180.274 152.412 186.78 142.663 180.274C132.907 173.767 136.156 164.011 136.156 164.011L136.142 164.018Z" stroke="black" stroke-width="10" stroke-miterlimit="10" stroke-linecap="round" stroke-linejoin="round"/>
<path d="M137.143 115.592C144.327 84.2449 125.731 7.29616 114.286 35.9184C100.571 67.2653 93.3877 77.7143 93.3877 77.7143C77.9282 92.3987 59.4285 107.755 66.6122 132.571" stroke="black" stroke-width="10" stroke-miterlimit="10" stroke-linecap="round" stroke-linejoin="round"/>
</g>
<defs>
<clipPath id="clip0_11_100">
<rect width="256" height="256" rx="40" fill="white"/>
</clipPath>
</defs>
</svg>
